Season of the Witch 1080p Rip med danske undertekster.
Det er i mp4 format så det er lige til at smide på ens ps3 mm. :)


Trailer : http://www.lovefilm.dk/film/Season-of-the-Witch/52817/

Korsridderne Behmen og Felson vender tilbage fra Mellemøstens krigsmarker, men finder deres hjem udslettet af en ny fjende, pesten. En ung, hekseanklaget kvinde menes at stå bag sygdommen, og modvilligt påtager de to korsriddere sig opgaven at bringe hende til et fjernt kloster, hvor man vil rense hende for helvedets ondskab. Men de virkelige farer gemmer sig ikke bag hekseburets tremmer, men i den pestplagede verden udenfor! 

General
Format                           : MPEG-4
Format profile                   : Base Media / Version 2
Codec ID                         : mp42
File size                        : 8.30 GiB
Duration                         : 1h 34mn
Overall bit rate                 : 12.6 Mbps
Encoded date                     : UTC 2011-08-26 23:01:36
Tagged date                      : UTC 2011-08-26 23:38:20

Video
ID                               : 1
Format                           : AVC
Format/Info                      : Advanced Video Codec
Format profile                   : High@L4.1
Format settings, CABAC           : Yes
Format settings, ReFrames        : 2 frames
Format settings, GOP             : M=3, N=15
Codec ID                         : avc1
Codec ID/Info                    : Advanced Video Coding
Duration                         : 1h 34mn
Bit rate mode                    : Variable
Bit rate                         : 12.1 Mbps
Maximum bit rate                 : 18.1 Mbps
Width                            : 1 920 pixels
Height                           : 1 080 pixels
Display aspect ratio             : 16:9
Frame rate mode                  : Constant
Frame rate                       : 23.976 fps
Color space                      : YUV
Chroma subsampling               : 4:2:0
Bit depth                        : 8 bits
Scan type                        : Progressive
Bits/(Pixel*Frame)               : 0.243
Stream size                      : 7.99 GiB (96%)
Encoded date                     : UTC 2011-08-26 23:01:36
Tagged date                      : UTC 2011-08-26 23:38:14

Audio
ID                               : 2
Format                           : AAC
Format/Info                      : Advanced Audio Codec
Format profile                   : LC
Codec ID                         : 40
Duration                         : 1h 34mn
Bit rate mode                    : Variable
Bit rate                         : 468 Kbps
Maximum bit rate                 : 634 Kbps
Channel(s)                       : 6 channels
Channel positions                : Front: L C R, Side: L R, LFE
Sampling rate                    : 48.0 KHz
Compression mode                 : Lossy
Stream size                      : 317 MiB (4%)
Encoded date                     : UTC 2011-08-26 23:01:36
Tagged date                      : UTC 2011-08-26 23:38:01
